<?xml version="1.0" encoding="UTF-8"?>
<svg id="Layer_1" xmlns="http://www.w3.org/2000/svg" version="1.1" viewBox="0 0 64 64">
  <!-- Generator: Adobe Illustrator 29.3.1, SVG Export Plug-In . SVG Version: 2.1.0 Build 151)  -->
  <defs>
    <style>
      .st0 {
        fill: #d7e6f0;
      }

      .st1 {
        fill: #ff6e91;
      }

      .st2 {
        fill: #a5c3dc;
      }

      .st3 {
        fill: #463c4b;
      }

      .st4 {
        fill: #555a6e;
      }

      .st5 {
        fill: #00d2d2;
      }
    </style>
  </defs>
  <path class="st2" d="M0,27.1v19.3c0,5.8,4.7,10.6,10.6,10.6s5.5-1.1,7.5-3.1l10.1-10.1c1.1-1.1,1.8-2.7,1.8-4.3v-12.4H0Z"/>
  <path class="st2" d="M64,27.1v19.3c0,5.8-4.7,10.6-10.6,10.6s-5.5-1.1-7.5-3.1l-10.1-10.1c-1.1-1.1-1.8-2.7-1.8-4.3v-12.4h30Z"/>
  <path class="st0" d="M49.1,12.2H14.9C6.7,12.2,0,18.9,0,27.1v16.5c0,5,4.1,9.1,9.1,9.1s4.7-1,6.4-2.7l6.2-6.2h0c1.1-1.1,2.6-1.8,4.1-1.8h12.4c1.6,0,3,.7,4.1,1.8h0l6.2,6.2c1.7,1.7,4,2.7,6.4,2.7,5,0,9.1-4.1,9.1-9.1v-16.5c0-8.2-6.7-14.9-14.9-14.9h0Z"/>
  <path class="st2" d="M36.9,18.6h-9.7c-.9,0-1.7-.6-2-1.5l-1.6-4.9h17.1l-1.6,4.9c-.3.9-1.1,1.5-2,1.5h-.2Z"/>
  <circle class="st2" cx="23.5" cy="34.6" r="5.3"/>
  <path class="st4" d="M26.7,33h-1.6v-1.6c0-.6-.5-1.1-1.1-1.1h-1.1c-.6,0-1.1.5-1.1,1.1v1.6h-1.6c-.6,0-1.1.5-1.1,1.1v1.1c0,.6.5,1.1,1.1,1.1h1.6v1.6c0,.6.5,1.1,1.1,1.1h1.1c.6,0,1.1-.5,1.1-1.1v-1.6h1.6c.6,0,1.1-.5,1.1-1.1v-1.1c0-.6-.5-1.1-1.1-1.1Z"/>
  <circle class="st3" cx="40.5" cy="34.6" r="5.3"/>
  <circle class="st4" cx="40.5" cy="34.6" r="3.2"/>
  <g>
    <circle class="st3" cx="12.8" cy="24.6" r="5.3"/>
    <circle class="st4" cx="12.8" cy="24.6" r="3.2"/>
  </g>
  <g>
    <circle class="st5" cx="51.2" cy="20" r="2.1"/>
    <circle class="st5" cx="51.2" cy="28.5" r="2.1"/>
    <circle class="st1" cx="46.9" cy="24.3" r="2.1"/>
    <circle class="st1" cx="55.5" cy="24.3" r="2.1"/>
  </g>
  <g>
    <circle class="st2" cx="27.7" cy="23.9" r="2.1"/>
    <circle class="st2" cx="36.3" cy="23.9" r="2.1"/>
  </g>
  <path class="st4" d="M21.3,10h-4.3c-1.2,0-2.1,1-2.1,2.1h8.5c0-1.2-1-2.1-2.1-2.1Z"/>
  <path class="st4" d="M46.9,10h-4.3c-1.2,0-2.1,1-2.1,2.1h8.5c0-1.2-1-2.1-2.1-2.1Z"/>
</svg>