<?xml version="1.0" encoding="UTF-8"?>
<svg id="Layer_1" xmlns="http://www.w3.org/2000/svg" version="1.1" viewBox="0 0 400.4 80.3">
  <!-- Generator: Adobe Illustrator 29.3.1, SVG Export Plug-In . SVG Version: 2.1.0 Build 151)  -->
  <defs>
    <style>
      .st0 {
        fill: #29b7f5;
      }

      .st0, .st1, .st2, .st3 {
        fill-rule: evenodd;
      }

      .st4 {
        fill: #d7e6f0;
      }

      .st1 {
        fill: #29f5b7;
      }

      .st2 {
        fill: #29ddf5;
      }

      .st5 {
        fill: #ff6e91;
      }

      .st6 {
        fill: #a5c3dc;
      }

      .st7 {
        fill: #463c4b;
      }

      .st8 {
        fill: #555a6e;
      }

      .st9 {
        fill: #00d2d2;
      }

      .st3 {
        fill: #a2edf7;
      }
    </style>
  </defs>
  <g>
    <path class="st1" d="M42,22c0-.4-.5-.7-1-.7s-.8.3-1,.7l-1,2.9-2.9.9c-.4.1-.7.5-.7,1s.3.8.7,1l2.9.9,1,2.9c0,.4.5.7,1,.7s.8-.3,1-.7l1-2.9,2.9-.9c.4-.1.7-.5.7-1s-.3-.8-.7-1l-2.9-.9-1-2.9Z"/>
    <path class="st2" d="M16,18.8h0c0,.7.5,1.4,1.2,1.6l7.3,2.4,2.4,7.3c.2.7.9,1.2,1.6,1.2s1.4-.5,1.6-1.2l2.4-7.3,7.3-2.4c.7-.2,1.2-.9,1.2-1.6h0c0-.7-.5-1.4-1.2-1.6l-7.3-2.4-2.4-7.3c-.2-.7-.9-1.2-1.6-1.2s-1.4.5-1.6,1.2l-2.4,7.3-7.3,2.4c-.7.2-1.2.9-1.2,1.6Z"/>
    <path class="st3" d="M41.5,1c0-.4-.5-.7-1-.7s-.8.3-1,.7l-1.4,4.4-4.4,1.4c-.4,0-.7.5-.7,1s.3.8.7,1l4.4,1.4,1.4,4.4c0,.4.5.7,1,.7s.8-.3,1-.7l1.4-4.4,4.4-1.4c.4-.1.7-.5.7-1s-.3-.8-.7-1l-4.4-1.4s-1.4-4.4-1.4-4.4Z"/>
    <path class="st0" d="M20,6.8h-1c-.5,0-1,.4-1,1s.5,1,1,1h1v1c0,.6.5,1,1,1s1-.4,1-1v-1h1c.5,0,1-.4,1-1s-.5-1-1-1h-1v-1c0-.6-.5-1-1-1s-1,.4-1,1v1Z"/>
  </g>
  <g>
    <path class="st6" d="M0,50.4v19.3c0,5.8,4.7,10.6,10.6,10.6s5.5-1.1,7.5-3.1l10.1-10.1c1.1-1.1,1.8-2.7,1.8-4.3v-12.4H0Z"/>
    <path class="st6" d="M64,50.4v19.3c0,5.8-4.7,10.6-10.6,10.6s-5.5-1.1-7.5-3.1l-10.1-10.1c-1.1-1.1-1.8-2.7-1.8-4.3v-12.4h30Z"/>
    <path class="st4" d="M49.1,35.5H14.9c-8.2,0-14.9,6.7-14.9,14.9v16.5c0,5,4.1,9.1,9.1,9.1s4.7-1,6.4-2.7l6.2-6.2h0c1.1-1.1,2.6-1.8,4.1-1.8h12.4c1.6,0,3,.7,4.1,1.8h0l6.2,6.2c1.7,1.7,4,2.7,6.4,2.7,5,0,9.1-4.1,9.1-9.1v-16.5c0-8.2-6.7-14.9-14.9-14.9h0Z"/>
    <path class="st6" d="M36.9,41.9h-9.7c-.9,0-1.7-.6-2-1.5l-1.6-4.9h17.1l-1.6,4.9c-.3.9-1.1,1.5-2,1.5h-.2Z"/>
    <circle class="st6" cx="23.5" cy="57.9" r="5.3"/>
    <path class="st8" d="M26.7,56.3h-1.6v-1.6c0-.6-.5-1.1-1.1-1.1h-1.1c-.6,0-1.1.5-1.1,1.1v1.6h-1.6c-.6,0-1.1.5-1.1,1.1v1.1c0,.6.5,1.1,1.1,1.1h1.6v1.6c0,.6.5,1.1,1.1,1.1h1.1c.6,0,1.1-.5,1.1-1.1v-1.6h1.6c.6,0,1.1-.5,1.1-1.1v-1.1c0-.6-.5-1.1-1.1-1.1Z"/>
    <circle class="st7" cx="40.5" cy="57.9" r="5.3"/>
    <circle class="st8" cx="40.5" cy="57.9" r="3.2"/>
    <g>
      <circle class="st7" cx="12.8" cy="47.9" r="5.3"/>
      <circle class="st8" cx="12.8" cy="47.9" r="3.2"/>
    </g>
    <g>
      <circle class="st9" cx="51.2" cy="43.3" r="2.1"/>
      <circle class="st9" cx="51.2" cy="51.8" r="2.1"/>
      <circle class="st5" cx="46.9" cy="47.6" r="2.1"/>
      <circle class="st5" cx="55.5" cy="47.6" r="2.1"/>
    </g>
    <g>
      <circle class="st6" cx="27.7" cy="47.2" r="2.1"/>
      <circle class="st6" cx="36.3" cy="47.2" r="2.1"/>
    </g>
    <path class="st8" d="M21.3,33.3h-4.3c-1.2,0-2.1,1-2.1,2.1h8.5c0-1.2-1-2.1-2.1-2.1Z"/>
    <path class="st8" d="M46.9,33.3h-4.3c-1.2,0-2.1,1-2.1,2.1h8.5c0-1.2-1-2.1-2.1-2.1Z"/>
  </g>
  <g>
    <path d="M92.4,32.2c-1.8,0-3.6-.3-5.1-1-1.6-.7-3-1.6-4.2-2.8-1.2-1.2-2.1-2.6-2.8-4.1s-1-3.3-1-5.1.3-3.5,1-5.1,1.6-2.9,2.8-4.1c1.2-1.2,2.6-2.1,4.2-2.8,1.6-.7,3.3-1,5.1-1s2.3.1,3.4.4c1.1.3,2.1.6,3,1.2.3.2.5.4.7.7.1.3.2.6.2.8,0,.5-.2.9-.5,1.3-.3.4-.7.6-1.2.6s-.3,0-.5,0c-.2,0-.3-.1-.5-.2-.7-.3-1.4-.6-2.2-.8-.8-.2-1.6-.3-2.4-.3-1.7,0-3.3.4-4.7,1.3-1.4.8-2.5,2-3.3,3.4-.8,1.4-1.2,3-1.2,4.7s.4,3.3,1.2,4.7c.8,1.4,1.9,2.6,3.3,3.4s3,1.2,4.7,1.2,1.7-.1,2.7-.3c.9-.2,1.7-.5,2.4-.8l-.3,1v-6.8l.6.5h-4.7c-.5,0-1-.2-1.3-.5-.3-.3-.5-.8-.5-1.3s.2-1,.5-1.3c.3-.3.8-.5,1.3-.5h6.2c.5,0,1,.2,1.3.5.3.3.5.8.5,1.3v8c0,.4,0,.7-.3,1-.2.3-.4.5-.6.6-1.1.7-2.3,1.2-3.6,1.6-1.3.4-2.7.6-4.1.6Z"/>
    <path d="M114.1,32.2c-2,0-3.7-.4-5.2-1.2-1.5-.8-2.6-2-3.4-3.4-.8-1.5-1.2-3.1-1.2-5s.4-3.9,1.3-5.4c.9-1.5,2-2.7,3.3-3.5,1.4-.8,2.8-1.2,4.4-1.2s2.3.2,3.3.7c1.1.5,2,1.1,2.8,1.9.8.8,1.5,1.8,2,2.9.5,1.1.7,2.3.8,3.7,0,.5-.2.9-.6,1.2-.4.3-.8.5-1.3.5h-14l-.9-3.1h13.5l-.7.6v-.9c0-.8-.4-1.6-.9-2.2-.5-.6-1.1-1.1-1.9-1.5-.7-.4-1.5-.5-2.3-.5s-1.4.1-2.1.3c-.7.2-1.2.6-1.8,1.1s-.9,1.2-1.2,2c-.3.8-.5,1.9-.5,3.1s.3,2.5.8,3.5c.6,1,1.3,1.7,2.2,2.3.9.5,2,.8,3.1.8s1.6,0,2.2-.3c.6-.2,1-.4,1.4-.7.4-.3.7-.5,1-.8.4-.2.7-.3,1-.3s.8.1,1.1.4c.3.3.4.7.4,1.1s-.3,1-.8,1.4c-.6.6-1.5,1.2-2.7,1.7-1.1.5-2.3.7-3.6.7Z"/>
    <path d="M136,12.5c1.7,0,3,.4,4,1.1.9.7,1.6,1.7,2,2.8.4,1.2.6,2.5.6,4v9.6c0,.5-.2,1-.5,1.3-.3.3-.8.5-1.3.5s-1-.2-1.3-.5c-.3-.3-.5-.8-.5-1.3v-9.6c0-.9-.1-1.6-.4-2.3s-.6-1.2-1.2-1.6c-.6-.4-1.4-.6-2.4-.6s-1.8.2-2.6.6c-.7.4-1.3,1-1.7,1.6s-.6,1.5-.6,2.3v9.6c0,.5-.2,1-.5,1.3-.3.3-.8.5-1.3.5s-1-.2-1.3-.5c-.3-.3-.5-.8-.5-1.3v-15.3c0-.5.2-1,.5-1.3.3-.3.8-.5,1.3-.5s.9.2,1.3.5c.3.3.5.8.5,1.3v2l-.6.4c.2-.5.5-1.1.9-1.6s.9-1,1.5-1.5c.6-.5,1.3-.8,2-1.1.7-.3,1.5-.4,2.4-.4Z"/>
    <path d="M156.3,32.2c-2,0-3.7-.4-5.2-1.2-1.5-.8-2.6-2-3.4-3.4-.8-1.5-1.2-3.1-1.2-5s.4-3.9,1.3-5.4c.9-1.5,2-2.7,3.3-3.5,1.4-.8,2.8-1.2,4.4-1.2s2.3.2,3.3.7c1.1.5,2,1.1,2.8,1.9.8.8,1.5,1.8,2,2.9.5,1.1.7,2.3.8,3.7,0,.5-.2.9-.6,1.2-.4.3-.8.5-1.3.5h-14l-.9-3.1h13.5l-.7.6v-.9c0-.8-.4-1.6-.9-2.2-.5-.6-1.1-1.1-1.9-1.5-.7-.4-1.5-.5-2.3-.5s-1.4.1-2.1.3c-.7.2-1.2.6-1.8,1.1s-.9,1.2-1.2,2c-.3.8-.5,1.9-.5,3.1s.3,2.5.8,3.5c.6,1,1.3,1.7,2.2,2.3.9.5,2,.8,3.1.8s1.6,0,2.2-.3c.6-.2,1-.4,1.4-.7.4-.3.7-.5,1-.8.4-.2.7-.3,1-.3s.8.1,1.1.4c.3.3.4.7.4,1.1s-.3,1-.8,1.4c-.6.6-1.5,1.2-2.7,1.7-1.1.5-2.3.7-3.6.7Z"/>
    <path d="M170.3,31.9c-.5,0-1-.2-1.3-.5-.3-.3-.5-.8-.5-1.3v-15.3c0-.5.2-1,.5-1.3.3-.3.8-.5,1.3-.5s.9.2,1.3.5c.3.3.5.8.5,1.3v4l-.4-1.5c.2-.7.5-1.3.9-1.9.4-.6.9-1.1,1.4-1.5.6-.4,1.2-.8,1.9-1,.7-.2,1.4-.4,2.1-.4s1.2.2,1.6.5.7.8.7,1.3-.2,1.1-.5,1.4c-.3.3-.7.5-1.1.5s-.7,0-1-.2c-.3-.2-.7-.2-1.2-.2s-1,.1-1.5.4c-.5.3-1,.7-1.4,1.2-.4.5-.8,1.1-1,1.8-.3.7-.4,1.5-.4,2.3v8.6c0,.5-.2,1-.5,1.3-.3.3-.8.5-1.3.5Z"/>
    <path d="M199,12.6c.5,0,1,.2,1.3.5.3.3.5.8.5,1.3v15.6c0,.5-.2,1-.5,1.3-.3.3-.8.5-1.3.5s-1-.2-1.3-.5c-.3-.3-.5-.8-.5-1.3v-2.6h.8c0,.6-.2,1-.5,1.6s-.8,1-1.4,1.5c-.6.5-1.3.9-2.1,1.2-.8.3-1.7.5-2.6.5-1.7,0-3.1-.4-4.5-1.3-1.3-.9-2.4-2-3.1-3.5-.8-1.5-1.2-3.2-1.2-5.1s.4-3.7,1.2-5.1c.8-1.5,1.8-2.6,3.1-3.5,1.3-.8,2.8-1.3,4.3-1.3s2,.2,2.9.5,1.6.8,2.3,1.3c.6.5,1.2,1.1,1.5,1.7.4.6.5,1.1.5,1.7h-1.1c0,.1,0-3.2,0-3.2,0-.5.2-.9.5-1.3.3-.4.8-.5,1.3-.5ZM191.7,28.9c1.1,0,2.1-.3,3-.9.9-.6,1.5-1.4,2-2.4.5-1,.7-2.1.7-3.3s-.2-2.3-.7-3.3c-.5-1-1.2-1.8-2-2.3-.9-.6-1.9-.8-3-.8s-2.1.3-2.9.8-1.5,1.3-2,2.3c-.5,1-.7,2.1-.7,3.3s.2,2.3.7,3.3c.5,1,1.2,1.8,2,2.4.9.6,1.8.9,2.9.9Z"/>
    <path d="M205.6,13.1h8.5c.5,0,.9.2,1.2.5.3.3.5.7.5,1.2s-.2.9-.5,1.2c-.3.3-.7.5-1.2.5h-8.5c-.5,0-.9-.2-1.2-.5-.3-.3-.5-.7-.5-1.2s.2-.9.5-1.2c.3-.3.7-.5,1.2-.5ZM209.4,8.5c.5,0,1,.2,1.3.5.3.3.5.8.5,1.3v16.7c0,.4,0,.8.2,1,.1.3.3.4.6.5.3,0,.5.1.8.1s.5,0,.7-.1c.2,0,.5-.1.7-.1s.6.1.8.4c.2.3.4.6.4,1.1s-.3,1-.9,1.4-1.3.5-2,.5-.9,0-1.4-.1c-.6,0-1.1-.3-1.6-.5-.5-.3-.9-.8-1.3-1.4-.3-.6-.5-1.5-.5-2.7V10.3c0-.5.2-1,.5-1.3.4-.3.8-.5,1.3-.5Z"/>
    <path d="M221.3,10.4c-.7,0-1.2-.1-1.5-.4s-.5-.7-.5-1.3v-.6c0-.6.2-1,.5-1.3.3-.2.8-.4,1.5-.4s1.2.1,1.5.4c.3.3.5.7.5,1.2v.6c0,.6-.2,1.1-.5,1.3-.3.2-.8.4-1.6.4ZM223.1,30c0,.5-.2,1-.5,1.3-.3.3-.8.5-1.3.5s-1-.2-1.3-.5c-.3-.3-.5-.8-.5-1.3v-15.4c0-.5.2-1,.5-1.3.3-.3.8-.5,1.3-.5s1,.2,1.3.5c.3.3.5.8.5,1.3v15.4Z"/>
    <path d="M228.4,12.8c.4,0,.7,0,1,.3.3.2.6.5.7.9l5.7,13.1-.7.3,5.7-13.4c.3-.8.9-1.2,1.6-1.2.5,0,.9.2,1.2.5s.5.7.5,1.2,0,.3,0,.5c0,.2-.1.3-.2.4l-6.8,15.4c-.3.7-.8,1.1-1.5,1.2-.4,0-.7,0-1.1-.2-.4-.2-.6-.5-.8-.9l-6.8-15.4c0-.1,0-.3-.1-.4,0-.2,0-.3,0-.6,0-.4.2-.7.5-1.1.3-.4.8-.5,1.3-.5Z"/>
    <path d="M256.7,32.2c-2,0-3.7-.4-5.2-1.2-1.5-.8-2.6-2-3.4-3.4-.8-1.5-1.2-3.1-1.2-5s.4-3.9,1.3-5.4c.9-1.5,2-2.7,3.3-3.5,1.4-.8,2.8-1.2,4.4-1.2s2.3.2,3.3.7c1.1.5,2,1.1,2.8,1.9.8.8,1.5,1.8,2,2.9.5,1.1.7,2.3.8,3.7,0,.5-.2.9-.6,1.2-.4.3-.8.5-1.3.5h-14l-.9-3.1h13.5l-.7.6v-.9c0-.8-.4-1.6-.9-2.2-.5-.6-1.1-1.1-1.9-1.5-.7-.4-1.5-.5-2.3-.5s-1.4.1-2.1.3c-.7.2-1.2.6-1.8,1.1s-.9,1.2-1.2,2c-.3.8-.5,1.9-.5,3.1s.3,2.5.8,3.5c.6,1,1.3,1.7,2.2,2.3.9.5,2,.8,3.1.8s1.6,0,2.2-.3c.6-.2,1-.4,1.4-.7.4-.3.7-.5,1-.8.4-.2.7-.3,1-.3s.8.1,1.1.4c.3.3.4.7.4,1.1s-.3,1-.8,1.4c-.6.6-1.5,1.2-2.7,1.7-1.1.5-2.3.7-3.6.7Z"/>
    <path d="M92.4,75.4c-1.8,0-3.6-.3-5.1-1-1.6-.7-3-1.6-4.2-2.8-1.2-1.2-2.1-2.6-2.8-4.1-.7-1.6-1-3.3-1-5.1s.3-3.5,1-5.1c.7-1.6,1.6-2.9,2.8-4.1,1.2-1.2,2.6-2.1,4.2-2.8,1.6-.7,3.3-1,5.1-1s2.3.1,3.4.4c1.1.3,2.1.6,3,1.2.3.2.5.4.7.7s.2.6.2.8c0,.5-.2.9-.5,1.3s-.7.6-1.2.6-.3,0-.5,0c-.2,0-.3-.1-.5-.2-.7-.3-1.4-.6-2.2-.8-.8-.2-1.6-.3-2.4-.3-1.7,0-3.3.4-4.7,1.3-1.4.8-2.5,2-3.3,3.4-.8,1.4-1.2,3-1.2,4.7s.4,3.3,1.2,4.7c.8,1.4,1.9,2.6,3.3,3.4,1.4.8,3,1.2,4.7,1.2s1.7-.1,2.7-.3c.9-.2,1.7-.5,2.4-.8l-.3,1v-6.8l.6.5h-4.7c-.5,0-1-.2-1.3-.5-.3-.3-.5-.8-.5-1.3s.2-1,.5-1.3c.3-.3.8-.5,1.3-.5h6.2c.5,0,1,.2,1.3.5.3.3.5.8.5,1.3v8c0,.4,0,.7-.3,1-.2.3-.4.5-.6.6-1.1.7-2.3,1.2-3.6,1.6-1.3.4-2.7.6-4.1.6Z"/>
    <path d="M120.8,55.8c.5,0,1,.2,1.3.5.3.3.5.8.5,1.3v15.6c0,.5-.2,1-.5,1.3-.3.3-.8.5-1.3.5s-1-.2-1.3-.5c-.3-.3-.5-.8-.5-1.3v-2.6h.8c0,.6-.2,1-.5,1.6s-.8,1.1-1.4,1.5c-.6.5-1.3.9-2.1,1.2-.8.3-1.7.5-2.6.5-1.7,0-3.1-.4-4.5-1.3-1.3-.9-2.4-2-3.1-3.5-.8-1.5-1.2-3.2-1.2-5.1s.4-3.7,1.2-5.1c.8-1.5,1.8-2.6,3.1-3.5,1.3-.8,2.8-1.3,4.3-1.3s2,.2,2.9.5c.9.3,1.6.8,2.3,1.3.6.5,1.2,1.1,1.5,1.7.4.6.5,1.1.5,1.7h-1.1c0,.1,0-3.2,0-3.2,0-.5.2-.9.5-1.3.3-.4.8-.5,1.3-.5ZM113.5,72.1c1.1,0,2.1-.3,3-.9.9-.6,1.5-1.4,2-2.4.5-1,.7-2.1.7-3.3s-.2-2.3-.7-3.3c-.5-1-1.2-1.8-2-2.3-.9-.6-1.9-.8-3-.8s-2.1.3-2.9.8c-.9.6-1.5,1.3-2,2.3-.5,1-.7,2.1-.7,3.3s.2,2.3.7,3.3c.5,1,1.2,1.8,2,2.4.9.6,1.8.9,2.9.9Z"/>
    <path d="M137.2,55.8c1.8,0,3.1.4,4.1,1.3,1,.9,1.6,2.1,1.9,3.5l-.6-.2.3-.6c.3-.6.8-1.3,1.4-1.9s1.4-1.2,2.3-1.6,1.8-.6,2.8-.6c1.7,0,2.9.4,3.9,1.1.9.7,1.5,1.7,1.9,2.8.4,1.2.5,2.5.5,4v9.5c0,.5-.2,1-.5,1.3-.3.3-.8.5-1.3.5s-1-.2-1.3-.5c-.3-.3-.5-.8-.5-1.3v-9.5c0-.8-.1-1.6-.3-2.3-.2-.7-.6-1.3-1.2-1.7-.6-.4-1.3-.6-2.3-.6s-1.8.2-2.5.6c-.7.4-1.3,1-1.7,1.7-.4.7-.6,1.5-.6,2.3v9.5c0,.5-.2,1-.5,1.3-.3.3-.8.5-1.3.5s-1-.2-1.3-.5c-.3-.3-.5-.8-.5-1.3v-9.5c0-.8-.1-1.6-.3-2.3-.2-.7-.6-1.2-1.2-1.7-.6-.4-1.3-.6-2.3-.6s-1.8.2-2.5.6c-.7.4-1.3,1-1.7,1.7-.4.7-.6,1.4-.6,2.3v9.5c0,.5-.2,1-.5,1.3-.3.3-.8.5-1.3.5s-1-.2-1.3-.5c-.3-.3-.5-.8-.5-1.3v-15.3c0-.5.2-1,.5-1.3.3-.3.8-.5,1.3-.5s.9.2,1.3.5c.3.3.5.8.5,1.3v2.1l-.7.4c.2-.5.4-1.1.8-1.6.4-.6.9-1.1,1.5-1.5s1.2-.8,2-1.1c.7-.3,1.5-.4,2.3-.4Z"/>
    <path d="M169.6,75.4c-2,0-3.7-.4-5.2-1.2-1.5-.8-2.6-2-3.4-3.4-.8-1.5-1.2-3.1-1.2-5s.4-3.9,1.3-5.4c.9-1.5,2-2.7,3.3-3.5,1.4-.8,2.8-1.2,4.4-1.2s2.3.2,3.3.7c1.1.5,2,1.1,2.8,1.9.8.8,1.5,1.8,2,2.9.5,1.1.7,2.3.8,3.7,0,.5-.2.9-.6,1.2-.4.3-.8.5-1.3.5h-14l-.9-3.1h13.5l-.7.6v-.9c0-.8-.4-1.6-.9-2.2-.5-.6-1.1-1.1-1.9-1.5-.7-.4-1.5-.5-2.3-.5s-1.4.1-2.1.3c-.7.2-1.2.6-1.8,1.1s-.9,1.2-1.2,2c-.3.8-.5,1.9-.5,3.1s.3,2.5.8,3.5c.6,1,1.3,1.7,2.2,2.3.9.5,2,.8,3.1.8s1.6,0,2.2-.3c.6-.2,1-.4,1.4-.7.4-.3.7-.5,1-.8.4-.2.7-.3,1-.3s.8.2,1.1.5.4.7.4,1.1-.3,1-.8,1.4c-.6.6-1.5,1.2-2.7,1.7-1.1.5-2.3.7-3.6.7Z"/>
    <path d="M192.7,49.9c1.8,0,3.3.3,4.6,1s2.5,1.6,3.4,2.7c.9,1.2,1.6,2.5,2.1,4,.5,1.5.7,3.1.7,4.8s-.4,4.4-1.2,6.4c-.8,1.9-2,3.4-3.6,4.6-1.6,1.1-3.6,1.7-5.9,1.7h-8.8c-.5,0-1-.2-1.3-.5-.3-.3-.5-.8-.5-1.3v-21.5c0-.5.2-1,.5-1.3.3-.3.8-.5,1.3-.5h8.8ZM192.4,71.6c1.7,0,3.1-.4,4.1-1.3,1.1-.8,1.8-2,2.3-3.3s.7-2.9.7-4.6-.1-2.4-.4-3.5c-.3-1.1-.7-2.1-1.3-2.9-.6-.9-1.3-1.5-2.2-2-.9-.5-2-.7-3.3-.7h-6.8l.3-.3v18.9l-.2-.4h6.7Z"/>
    <path d="M216.3,75.4c-2,0-3.7-.4-5.2-1.2-1.5-.8-2.6-2-3.4-3.4-.8-1.5-1.2-3.1-1.2-5s.4-3.9,1.3-5.4c.9-1.5,2-2.7,3.3-3.5,1.4-.8,2.8-1.2,4.4-1.2s2.3.2,3.3.7c1.1.5,2,1.1,2.8,1.9.8.8,1.5,1.8,2,2.9.5,1.1.7,2.3.8,3.7,0,.5-.2.9-.6,1.2-.4.3-.8.5-1.3.5h-14l-.9-3.1h13.5l-.7.6v-.9c0-.8-.4-1.6-.9-2.2-.5-.6-1.1-1.1-1.9-1.5-.7-.4-1.5-.5-2.3-.5s-1.4.1-2.1.3c-.7.2-1.2.6-1.8,1.1s-.9,1.2-1.2,2c-.3.8-.5,1.9-.5,3.1s.3,2.5.8,3.5c.6,1,1.3,1.7,2.2,2.3.9.5,2,.8,3.1.8s1.6,0,2.2-.3c.6-.2,1-.4,1.4-.7.4-.3.7-.5,1-.8.4-.2.7-.3,1-.3s.8.2,1.1.5.4.7.4,1.1-.3,1-.8,1.4c-.6.6-1.5,1.2-2.7,1.7-1.1.5-2.3.7-3.6.7Z"/>
    <path d="M228.9,56c.4,0,.7,0,1,.3.3.2.6.5.7.9l5.7,13.1-.7.3,5.7-13.4c.3-.8.9-1.2,1.6-1.2.5,0,.9.2,1.2.5.3.3.5.7.5,1.2s0,.3,0,.5c0,.2-.1.3-.2.4l-6.8,15.4c-.3.7-.8,1.1-1.5,1.2-.4,0-.7,0-1.1-.2-.4-.2-.6-.5-.8-.9l-6.8-15.4c0-.1,0-.3-.1-.4,0-.2,0-.3,0-.6,0-.4.2-.7.5-1.1.3-.4.8-.5,1.3-.5Z"/>
  </g>
</svg>