<?xml version="1.0" encoding="UTF-8"?>
<svg id="Layer_1" xmlns="http://www.w3.org/2000/svg" version="1.1" viewBox="0 0 118.3 47.5">
  <!-- Generator: Adobe Illustrator 29.3.1, SVG Export Plug-In . SVG Version: 2.1.0 Build 151)  -->
  <defs>
    <style>
      .st0 {
        fill: #29b7f5;
      }

      .st0, .st1, .st2, .st3 {
        fill-rule: evenodd;
      }

      .st4 {
        fill: #d7e6f0;
      }

      .st1 {
        fill: #29f5b7;
      }

      .st2 {
        fill: #29ddf5;
      }

      .st5 {
        fill: #ff6e91;
      }

      .st6 {
        fill: #a5c3dc;
      }

      .st7 {
        fill: #463c4b;
      }

      .st8 {
        fill: #555a6e;
      }

      .st9 {
        fill: #00d2d2;
      }

      .st3 {
        fill: #a2edf7;
      }
    </style>
  </defs>
  <g>
    <path class="st1" d="M111.1,29.6c-.1-.4-.5-.7-1-.7s-.8.3-1,.7l-1,2.9-2.9.9c-.4.1-.7.5-.7,1s.3.8.7,1l2.9.9,1,2.9c.1.4.5.7,1,.7s.8-.3,1-.7l1-2.9,2.9-.9c.4-.1.7-.5.7-1s-.3-.8-.7-1l-2.9-.9s-1-2.9-1-2.9Z"/>
    <path class="st2" d="M85.2,26.4h0c0,.7.5,1.4,1.2,1.6l7.3,2.4,2.4,7.3c.2.7.9,1.2,1.6,1.2s1.4-.5,1.6-1.2l2.4-7.3,7.3-2.4c.7-.2,1.2-.9,1.2-1.6h0c0-.7-.5-1.4-1.2-1.6l-7.3-2.4-2.4-7.3c-.2-.7-.9-1.2-1.6-1.2s-1.4.5-1.6,1.2l-2.4,7.3-7.3,2.4c-.7.2-1.2.9-1.2,1.6Z"/>
    <path class="st3" d="M110.6,8.6c-.1-.4-.5-.7-1-.7s-.8.3-1,.7l-1.4,4.4-4.4,1.4c-.4.1-.7.5-.7,1s.3.8.7,1l4.4,1.4,1.4,4.4c.1.4.5.7,1,.7s.8-.3,1-.7l1.4-4.4,4.4-1.4c.4-.1.7-.5.7-1s-.3-.8-.7-1l-4.4-1.4-1.4-4.4Z"/>
    <path class="st0" d="M89.2,14.4h-1c-.5,0-1,.4-1,1s.5,1,1,1h1v1c0,.6.5,1,1,1s1-.4,1-1v-1h1c.5,0,1-.4,1-1s-.5-1-1-1h-1v-1c0-.6-.5-1-1-1s-1,.4-1,1v1Z"/>
  </g>
  <g>
    <path class="st6" d="M0,17.6v19.3c0,5.8,4.7,10.6,10.6,10.6s5.5-1.1,7.5-3.1l10.1-10.1c1.1-1.1,1.8-2.7,1.8-4.3v-12.4H0Z"/>
    <path class="st6" d="M64,17.6v19.3c0,5.8-4.7,10.6-10.6,10.6s-5.5-1.1-7.5-3.1l-10.1-10.1c-1.1-1.1-1.8-2.7-1.8-4.3v-12.4h29.9Z"/>
    <path class="st4" d="M49.1,2.7H14.9C6.7,2.7,0,9.4,0,17.6v16.5c0,5,4.1,9.1,9.1,9.1s4.7-1,6.4-2.7l6.2-6.2h0c1.1-1.1,2.6-1.8,4.1-1.8h12.4c1.6,0,3,.7,4.1,1.8,0,0,0,0,0,0l6.2,6.2c1.7,1.7,4,2.7,6.4,2.7,5,0,9.1-4.1,9.1-9.1v-16.5c0-8.2-6.7-14.9-14.9-14.9h0Z"/>
    <path class="st6" d="M36.9,9.1h-9.7c-.9,0-1.7-.6-2-1.5l-1.6-4.9h17.1l-1.6,4.9c-.3.9-1.1,1.5-2,1.5h0Z"/>
    <circle class="st6" cx="23.5" cy="25.1" r="5.3"/>
    <path class="st8" d="M26.7,23.5h-1.6v-1.6c0-.6-.5-1.1-1.1-1.1h-1.1c-.6,0-1.1.5-1.1,1.1v1.6h-1.6c-.6,0-1.1.5-1.1,1.1v1.1c0,.6.5,1.1,1.1,1.1h1.6v1.6c0,.6.5,1.1,1.1,1.1h1.1c.6,0,1.1-.5,1.1-1.1v-1.6h1.6c.6,0,1.1-.5,1.1-1.1v-1.1c0-.6-.5-1.1-1.1-1.1Z"/>
    <circle class="st7" cx="40.5" cy="25.1" r="5.3"/>
    <circle class="st8" cx="40.5" cy="25.1" r="3.2"/>
    <g>
      <circle class="st7" cx="12.8" cy="15.1" r="5.3"/>
      <circle class="st8" cx="12.8" cy="15.1" r="3.2"/>
    </g>
    <g>
      <circle class="st9" cx="51.2" cy="10.5" r="2.1"/>
      <circle class="st9" cx="51.2" cy="19" r="2.1"/>
      <circle class="st5" cx="46.9" cy="14.8" r="2.1"/>
      <circle class="st5" cx="55.5" cy="14.8" r="2.1"/>
    </g>
    <g>
      <circle class="st6" cx="27.7" cy="14.4" r="2.1"/>
      <circle class="st6" cx="36.3" cy="14.4" r="2.1"/>
    </g>
    <path class="st8" d="M21.3.5h-4.3c-1.2,0-2.1,1-2.1,2.1h8.5c0-1.2-1-2.1-2.1-2.1Z"/>
    <path class="st8" d="M46.9.5h-4.3c-1.2,0-2.1,1-2.1,2.1h8.5c0-1.2-1-2.1-2.1-2.1Z"/>
  </g>
</svg>